<svg width="115" height="40" viewBox="0 0 115 40" fill="none" xmlns="http://www.w3.org/2000/svg">
<g filter="url(#filter0_d_308_57)">
<path d="M31.43 16.76H34.48L28.38 16.8536L29.5 16.76L29.91 16.8536V16.76H22.29L23 17.5L25.34 16.76L28.38 16.8536H25.0441L26.86 16.8068L22.29 16.76L16.405 16.76L25.34 16.76L23.6671 16.8068L23.05 16.76L15.43 16.76H19.24L13.14 16.76L10.1 16.76L12.38 16.76L9.5 16.76L8.57 16.76H4V19.81H5.53V18.28H7.05V19.81H8.57V22.86H10.1V24.38H13.14V22.86H14.67V21.33H16.19V18.28H19.24V19.81H22.29V21.33H25.34V22.86H26.86V24.38H29.91V22.86H31.43V19.81H32.95V18.28H34.48V19.81H36V16.76H31.43ZM20.76 16.76H19.24L13.14 16.76L11.62 16.76L10.1 16.76L19.24 16.76H20.76L16.405 16.76L19.24 16.76H14.67H15.43H20.76L25.9521 16.8302L23.6671 16.8068L20.76 16.76H25.34H22.29H20.76Z" fill="url(#paint0_linear_308_57)"/>
<path d="M34.48 19.81H32.95V22.86H34.48V19.81Z" fill="url(#paint1_linear_308_57)"/>
<path d="M32.95 22.86L31.43 22.86V25.9H32.95V22.86Z" fill="url(#paint2_linear_308_57)"/>
<path d="M31.43 25.9H29.91V27.43H31.43V25.9Z" fill="url(#paint3_linear_308_57)"/>
<path d="M25.34 27.43V25.9H23.81V24.38H19.24V25.9H16.19V27.43H14.67V28.95H13.14V30.47H16.19V32H23.81V30.47H26.86V28.95H29.91V27.43H25.34Z" fill="url(#paint4_linear_308_57)"/>
<path d="M13.14 27.43H10.1V28.95H13.14V27.43Z" fill="url(#paint5_linear_308_57)"/>
<path d="M10.1 25.9H8.57V27.43H10.1V25.9Z" fill="url(#paint6_linear_308_57)"/>
<path d="M8.57 22.86L7.05 22.86V25.9H8.57V22.86Z" fill="url(#paint7_linear_308_57)"/>
<path d="M7.05 19.81H5.53V22.86H7.05V19.81Z" fill="url(#paint8_linear_308_57)"/>
<path d="M19.2375 12.95H18.4775V14.475H19.2375V12.95Z" fill="url(#paint9_linear_308_57)"/>
<path d="M18.4775 12.19H16.9525V12.95H18.4775V12.19Z" fill="url(#paint10_linear_308_57)"/>
<path d="M18.4775 14.475H16.9525V15.235H18.4775V14.475Z" fill="url(#paint11_linear_308_57)"/>
<path d="M16.9525 11.425H15.4275V12.19H16.9525V11.425Z" fill="url(#paint12_linear_308_57)"/>
<path d="M16.9525 3.045H16.1925V6.855H16.9525V3.045Z" fill="url(#paint13_linear_308_57)"/>
<path d="M16.9525 15.235H7.0475V16H16.9525V15.235Z" fill="url(#paint14_linear_308_57)"/>
<path d="M16.1925 6.855H15.4275V9.14H16.1925V6.855Z" fill="url(#paint15_linear_308_57)"/>
<path d="M16.1925 1.52H15.4275V3.045L16.1925 3.045V1.52Z" fill="url(#paint16_linear_308_57)"/>
<path d="M15.4275 9.14H14.6675V10.665H15.4275V9.14Z" fill="url(#paint17_linear_308_57)"/>
<path d="M14.6675 10.665H13.9075V12.19H14.6675V10.665Z" fill="url(#paint18_linear_308_57)"/>
<path d="M15.4275 0.76H13.9075V1.52H15.4275V0.76Z" fill="url(#paint19_linear_308_57)"/>
<path d="M13.9075 12.19H13.1425V12.95H13.9075V12.19Z" fill="url(#paint20_linear_308_57)"/>
<path d="M13.9075 3.045H13.1425V3.805H13.9075V3.045Z" fill="url(#paint21_linear_308_57)"/>
<path d="M13.1425 12.95H12.3825V13.71H13.1425L13.1425 12.95Z" fill="url(#paint22_linear_308_57)"/>
<path d="M12.3825 13.71H11.6175V14.475H12.3825L12.3825 13.71Z" fill="url(#paint23_linear_308_57)"/>
<path d="M11.6175 12.95H10.8575V13.71H11.6175V12.95Z" fill="url(#paint24_linear_308_57)"/>
<path d="M13.9075 0H10.0975V0.76H13.9075V0Z" fill="url(#paint25_linear_308_57)"/>
<path d="M10.8575 12.19H10.0975V12.95H10.8575V12.19Z" fill="url(#paint26_linear_308_57)"/>
<path d="M10.0975 6.855H10.8575V7.615H13.1425V6.855H13.9075V6.095H14.6675V3.805L13.9075 3.805V5.33H13.1425V3.805L12.3825 3.805V3.045L13.1425 3.045V2.285H10.8575V3.045H10.0975V3.805H9.3325V6.095H10.0975V6.855Z" fill="url(#paint27_linear_308_57)"/>
<path d="M10.0975 10.665H9.3325V12.19H10.0975V10.665Z" fill="url(#paint28_linear_308_57)"/>
<path d="M10.0975 0.76H8.5725V1.52H10.0975V0.76Z" fill="url(#paint29_linear_308_57)"/>
<path d="M9.3325 9.14H8.5725V10.665H9.3325V9.14Z" fill="url(#paint30_linear_308_57)"/>
<path d="M8.5725 11.425H7.0475V12.19H8.5725V11.425Z" fill="url(#paint31_linear_308_57)"/>
<path d="M8.5725 6.855H7.8075V9.14H8.5725V6.855Z" fill="url(#paint32_linear_308_57)"/>
<path d="M8.5725 1.52H7.8075V3.045H8.5725V1.52Z" fill="url(#paint33_linear_308_57)"/>
<path d="M7.8075 3.045L7.0475 3.045V6.855H7.8075V3.045Z" fill="url(#paint34_linear_308_57)"/>
<path d="M7.0475 14.475H5.5225V15.235H7.0475V14.475Z" fill="url(#paint35_linear_308_57)"/>
<path d="M7.0475 12.19H5.5225V12.95H7.0475V12.19Z" fill="url(#paint36_linear_308_57)"/>
<path d="M5.5225 12.95H4.7625V14.475H5.5225V12.95Z" fill="url(#paint37_linear_308_57)"/>
<path d="M24.265 12.18V10.83H22.9V3.9H24.265V2.535H28.495V3.9H29.875V5.4H28.345V4.05H24.415V6.615H27.145V8.1H24.415V10.68H28.345V9.315H29.875V10.83H28.495V12.18H24.265Z" fill="url(#paint38_linear_308_57)"/>
<path d="M33.0541 12.18V10.83H31.6891V6.615H33.0541V5.25H37.2841V6.615H38.6641V10.68H40.0291V12.18H38.5141V10.83H37.2841V12.18H33.0541ZM33.2041 10.68H37.1341V6.75H33.2041V10.68Z" fill="url(#paint39_linear_308_57)"/>
<path d="M41.8404 12.18V6.615H43.2054V5.25H47.4354V6.615H48.8154V8.1H47.2854V6.75H43.3554V12.18H41.8404Z" fill="url(#paint40_linear_308_57)"/>
<path d="M53.3445 12.18V10.83H51.9945V6.75H50.6295V5.25H51.9945V2.535H53.4945V5.25H57.6045V6.75H53.4945V10.68H57.4545V9.315H58.9695V10.83H57.6045V12.18H53.3445Z" fill="url(#paint41_linear_308_57)"/>
<path d="M60.4879 12.18V2.535H62.0029V6.615H63.2029V5.25H66.0829V6.615H67.4629V12.18H65.9329V6.75H63.3529V8.1H62.0029V12.18H60.4879Z" fill="url(#paint42_linear_308_57)"/>
<path d="M74.429 14.82V12.18H70.349V10.83H68.984V6.615H70.349V5.25H74.579V6.615H75.959V14.82H74.429ZM70.499 10.68H74.429V6.75H70.499V10.68Z" fill="url(#paint43_linear_308_57)"/>
<path d="M78.8451 12.18V10.83H77.4801V5.25H78.9951V10.68H82.9251V5.25H84.4551V10.83H83.0751V12.18H78.8451Z" fill="url(#paint44_linear_308_57)"/>
<path d="M87.3412 12.18V10.83H85.9762V6.615H87.3412V5.25H91.5712V6.615H92.9512V10.68H94.3162V12.18H92.8012V10.83H91.5712V12.18H87.3412ZM87.4912 10.68H91.4212V6.75H87.4912V10.68Z" fill="url(#paint45_linear_308_57)"/>
<path d="M95.527 12.18V2.535H97.042V7.95H98.242V6.615H100.972V5.25H102.502V6.75H101.122V8.1H98.392V9.315H101.122V10.68H102.502V12.18H100.972V10.83H98.242V9.465H97.042V12.18H95.527Z" fill="url(#paint46_linear_308_57)"/>
<path d="M104.787 12.18V10.83H103.422V6.615H104.787V5.25H109.017V6.615H110.397V8.1H108.867V6.75H104.937V7.95H107.667V9.465H104.937V10.68H108.867V9.3H110.397V10.815H109.017V12.18H104.787Z" fill="url(#paint47_linear_308_57)"/>
<path d="M74.615 30.18V22.05H73.415V23.4H71.9V21.9H73.265V20.535H77.495V21.9H78.875V23.4H77.345V22.05H76.145V30.18H74.615Z" fill="url(#paint48_linear_308_57)"/>
<path d="M79.1949 30.18V24.615H80.5599V23.25H84.7899V24.615H86.1699V26.1H84.6399V24.75H80.7099V30.18H79.1949Z" fill="url(#paint49_linear_308_57)"/>
<path d="M88.8949 30.18V28.83H87.5299V24.615H88.8949V23.25H93.1249V24.615H94.5049V28.68H95.8699V30.18H94.3549V28.83H93.1249V30.18H88.8949ZM89.0449 28.68H92.9749V24.75H89.0449V28.68Z" fill="url(#paint50_linear_308_57)"/>
<path d="M97.2271 30.18V23.25H98.7421V30.18H97.2271ZM97.2271 22.05V20.535H98.7421V22.05H97.2271Z" fill="url(#paint51_linear_308_57)"/>
<path d="M100.552 30.18V20.535H102.067V30.18H100.552Z" fill="url(#paint52_linear_308_57)"/>
<path d="M103.585 30.18V28.68H109.03V27.465H104.95V26.1H103.585V24.615H104.95V23.25H110.56V24.75H105.1V25.95H109.18V27.315H110.56V28.83H109.18V30.18H103.585Z" fill="url(#paint53_linear_308_57)"/>
</g>
<defs>
<filter id="filter0_d_308_57" x="0" y="0" width="114.56" height="40" filterUnits="userSpaceOnUse" color-interpolation-filters="sRGB">
<feFlood flood-opacity="0" result="BackgroundImageFix"/>
<feColorMatrix in="SourceAlpha" type="matrix" values="0 0 0 0 0 0 0 0 0 0 0 0 0 0 0 0 0 0 127 0" result="hardAlpha"/>
<feOffset dy="4"/>
<feGaussianBlur stdDeviation="2"/>
<feComposite in2="hardAlpha" operator="out"/>
<feColorMatrix type="matrix" values="0 0 0 0 0 0 0 0 0 0 0 0 0 0 0 0 0 0 0.25 0"/>
<feBlend mode="normal" in2="BackgroundImageFix" result="effect1_dropShadow_308_57"/>
<feBlend mode="normal" in="SourceGraphic" in2="effect1_dropShadow_308_57" result="shape"/>
</filter>
<linearGradient id="paint0_linear_308_57" x1="64" y1="43" x2="64" y2="4" gradientUnits="userSpaceOnUse">
<stop offset="0.402189" stop-color="#A32EFF"/>
<stop offset="1" stop-color="#FF7627"/>
</linearGradient>
<linearGradient id="paint1_linear_308_57" x1="64" y1="43" x2="64" y2="4" gradientUnits="userSpaceOnUse">
<stop offset="0.402189" stop-color="#A32EFF"/>
<stop offset="1" stop-color="#FF7627"/>
</linearGradient>
<linearGradient id="paint2_linear_308_57" x1="64" y1="43" x2="64" y2="4" gradientUnits="userSpaceOnUse">
<stop offset="0.402189" stop-color="#A32EFF"/>
<stop offset="1" stop-color="#FF7627"/>
</linearGradient>
<linearGradient id="paint3_linear_308_57" x1="64" y1="43" x2="64" y2="4" gradientUnits="userSpaceOnUse">
<stop offset="0.402189" stop-color="#A32EFF"/>
<stop offset="1" stop-color="#FF7627"/>
</linearGradient>
<linearGradient id="paint4_linear_308_57" x1="64" y1="43" x2="64" y2="4" gradientUnits="userSpaceOnUse">
<stop offset="0.402189" stop-color="#A32EFF"/>
<stop offset="1" stop-color="#FF7627"/>
</linearGradient>
<linearGradient id="paint5_linear_308_57" x1="64" y1="43" x2="64" y2="4" gradientUnits="userSpaceOnUse">
<stop offset="0.402189" stop-color="#A32EFF"/>
<stop offset="1" stop-color="#FF7627"/>
</linearGradient>
<linearGradient id="paint6_linear_308_57" x1="64" y1="43" x2="64" y2="4" gradientUnits="userSpaceOnUse">
<stop offset="0.402189" stop-color="#A32EFF"/>
<stop offset="1" stop-color="#FF7627"/>
</linearGradient>
<linearGradient id="paint7_linear_308_57" x1="64" y1="43" x2="64" y2="4" gradientUnits="userSpaceOnUse">
<stop offset="0.402189" stop-color="#A32EFF"/>
<stop offset="1" stop-color="#FF7627"/>
</linearGradient>
<linearGradient id="paint8_linear_308_57" x1="64" y1="43" x2="64" y2="4" gradientUnits="userSpaceOnUse">
<stop offset="0.402189" stop-color="#A32EFF"/>
<stop offset="1" stop-color="#FF7627"/>
</linearGradient>
<linearGradient id="paint9_linear_308_57" x1="64" y1="43" x2="64" y2="4" gradientUnits="userSpaceOnUse">
<stop offset="0.402189" stop-color="#A32EFF"/>
<stop offset="1" stop-color="#FF7627"/>
</linearGradient>
<linearGradient id="paint10_linear_308_57" x1="64" y1="43" x2="64" y2="4" gradientUnits="userSpaceOnUse">
<stop offset="0.402189" stop-color="#A32EFF"/>
<stop offset="1" stop-color="#FF7627"/>
</linearGradient>
<linearGradient id="paint11_linear_308_57" x1="64" y1="43" x2="64" y2="4" gradientUnits="userSpaceOnUse">
<stop offset="0.402189" stop-color="#A32EFF"/>
<stop offset="1" stop-color="#FF7627"/>
</linearGradient>
<linearGradient id="paint12_linear_308_57" x1="64" y1="43" x2="64" y2="4" gradientUnits="userSpaceOnUse">
<stop offset="0.402189" stop-color="#A32EFF"/>
<stop offset="1" stop-color="#FF7627"/>
</linearGradient>
<linearGradient id="paint13_linear_308_57" x1="64" y1="43" x2="64" y2="4" gradientUnits="userSpaceOnUse">
<stop offset="0.402189" stop-color="#A32EFF"/>
<stop offset="1" stop-color="#FF7627"/>
</linearGradient>
<linearGradient id="paint14_linear_308_57" x1="64" y1="43" x2="64" y2="4" gradientUnits="userSpaceOnUse">
<stop offset="0.402189" stop-color="#A32EFF"/>
<stop offset="1" stop-color="#FF7627"/>
</linearGradient>
<linearGradient id="paint15_linear_308_57" x1="64" y1="43" x2="64" y2="4" gradientUnits="userSpaceOnUse">
<stop offset="0.402189" stop-color="#A32EFF"/>
<stop offset="1" stop-color="#FF7627"/>
</linearGradient>
<linearGradient id="paint16_linear_308_57" x1="64" y1="43" x2="64" y2="4" gradientUnits="userSpaceOnUse">
<stop offset="0.402189" stop-color="#A32EFF"/>
<stop offset="1" stop-color="#FF7627"/>
</linearGradient>
<linearGradient id="paint17_linear_308_57" x1="64" y1="43" x2="64" y2="4" gradientUnits="userSpaceOnUse">
<stop offset="0.402189" stop-color="#A32EFF"/>
<stop offset="1" stop-color="#FF7627"/>
</linearGradient>
<linearGradient id="paint18_linear_308_57" x1="64" y1="43" x2="64" y2="4" gradientUnits="userSpaceOnUse">
<stop offset="0.402189" stop-color="#A32EFF"/>
<stop offset="1" stop-color="#FF7627"/>
</linearGradient>
<linearGradient id="paint19_linear_308_57" x1="64" y1="43" x2="64" y2="4" gradientUnits="userSpaceOnUse">
<stop offset="0.402189" stop-color="#A32EFF"/>
<stop offset="1" stop-color="#FF7627"/>
</linearGradient>
<linearGradient id="paint20_linear_308_57" x1="64" y1="43" x2="64" y2="4" gradientUnits="userSpaceOnUse">
<stop offset="0.402189" stop-color="#A32EFF"/>
<stop offset="1" stop-color="#FF7627"/>
</linearGradient>
<linearGradient id="paint21_linear_308_57" x1="64" y1="43" x2="64" y2="4" gradientUnits="userSpaceOnUse">
<stop offset="0.402189" stop-color="#A32EFF"/>
<stop offset="1" stop-color="#FF7627"/>
</linearGradient>
<linearGradient id="paint22_linear_308_57" x1="64" y1="43" x2="64" y2="4" gradientUnits="userSpaceOnUse">
<stop offset="0.402189" stop-color="#A32EFF"/>
<stop offset="1" stop-color="#FF7627"/>
</linearGradient>
<linearGradient id="paint23_linear_308_57" x1="64" y1="43" x2="64" y2="4" gradientUnits="userSpaceOnUse">
<stop offset="0.402189" stop-color="#A32EFF"/>
<stop offset="1" stop-color="#FF7627"/>
</linearGradient>
<linearGradient id="paint24_linear_308_57" x1="64" y1="43" x2="64" y2="4" gradientUnits="userSpaceOnUse">
<stop offset="0.402189" stop-color="#A32EFF"/>
<stop offset="1" stop-color="#FF7627"/>
</linearGradient>
<linearGradient id="paint25_linear_308_57" x1="64" y1="43" x2="64" y2="4" gradientUnits="userSpaceOnUse">
<stop offset="0.402189" stop-color="#A32EFF"/>
<stop offset="1" stop-color="#FF7627"/>
</linearGradient>
<linearGradient id="paint26_linear_308_57" x1="64" y1="43" x2="64" y2="4" gradientUnits="userSpaceOnUse">
<stop offset="0.402189" stop-color="#A32EFF"/>
<stop offset="1" stop-color="#FF7627"/>
</linearGradient>
<linearGradient id="paint27_linear_308_57" x1="64" y1="43" x2="64" y2="4" gradientUnits="userSpaceOnUse">
<stop offset="0.402189" stop-color="#A32EFF"/>
<stop offset="1" stop-color="#FF7627"/>
</linearGradient>
<linearGradient id="paint28_linear_308_57" x1="64" y1="43" x2="64" y2="4" gradientUnits="userSpaceOnUse">
<stop offset="0.402189" stop-color="#A32EFF"/>
<stop offset="1" stop-color="#FF7627"/>
</linearGradient>
<linearGradient id="paint29_linear_308_57" x1="64" y1="43" x2="64" y2="4" gradientUnits="userSpaceOnUse">
<stop offset="0.402189" stop-color="#A32EFF"/>
<stop offset="1" stop-color="#FF7627"/>
</linearGradient>
<linearGradient id="paint30_linear_308_57" x1="64" y1="43" x2="64" y2="4" gradientUnits="userSpaceOnUse">
<stop offset="0.402189" stop-color="#A32EFF"/>
<stop offset="1" stop-color="#FF7627"/>
</linearGradient>
<linearGradient id="paint31_linear_308_57" x1="64" y1="43" x2="64" y2="4" gradientUnits="userSpaceOnUse">
<stop offset="0.402189" stop-color="#A32EFF"/>
<stop offset="1" stop-color="#FF7627"/>
</linearGradient>
<linearGradient id="paint32_linear_308_57" x1="64" y1="43" x2="64" y2="4" gradientUnits="userSpaceOnUse">
<stop offset="0.402189" stop-color="#A32EFF"/>
<stop offset="1" stop-color="#FF7627"/>
</linearGradient>
<linearGradient id="paint33_linear_308_57" x1="64" y1="43" x2="64" y2="4" gradientUnits="userSpaceOnUse">
<stop offset="0.402189" stop-color="#A32EFF"/>
<stop offset="1" stop-color="#FF7627"/>
</linearGradient>
<linearGradient id="paint34_linear_308_57" x1="64" y1="43" x2="64" y2="4" gradientUnits="userSpaceOnUse">
<stop offset="0.402189" stop-color="#A32EFF"/>
<stop offset="1" stop-color="#FF7627"/>
</linearGradient>
<linearGradient id="paint35_linear_308_57" x1="64" y1="43" x2="64" y2="4" gradientUnits="userSpaceOnUse">
<stop offset="0.402189" stop-color="#A32EFF"/>
<stop offset="1" stop-color="#FF7627"/>
</linearGradient>
<linearGradient id="paint36_linear_308_57" x1="64" y1="43" x2="64" y2="4" gradientUnits="userSpaceOnUse">
<stop offset="0.402189" stop-color="#A32EFF"/>
<stop offset="1" stop-color="#FF7627"/>
</linearGradient>
<linearGradient id="paint37_linear_308_57" x1="64" y1="43" x2="64" y2="4" gradientUnits="userSpaceOnUse">
<stop offset="0.402189" stop-color="#A32EFF"/>
<stop offset="1" stop-color="#FF7627"/>
</linearGradient>
<linearGradient id="paint38_linear_308_57" x1="64" y1="43" x2="64" y2="4" gradientUnits="userSpaceOnUse">
<stop offset="0.402189" stop-color="#A32EFF"/>
<stop offset="1" stop-color="#FF7627"/>
</linearGradient>
<linearGradient id="paint39_linear_308_57" x1="64" y1="43" x2="64" y2="4" gradientUnits="userSpaceOnUse">
<stop offset="0.402189" stop-color="#A32EFF"/>
<stop offset="1" stop-color="#FF7627"/>
</linearGradient>
<linearGradient id="paint40_linear_308_57" x1="64" y1="43" x2="64" y2="4" gradientUnits="userSpaceOnUse">
<stop offset="0.402189" stop-color="#A32EFF"/>
<stop offset="1" stop-color="#FF7627"/>
</linearGradient>
<linearGradient id="paint41_linear_308_57" x1="64" y1="43" x2="64" y2="4" gradientUnits="userSpaceOnUse">
<stop offset="0.402189" stop-color="#A32EFF"/>
<stop offset="1" stop-color="#FF7627"/>
</linearGradient>
<linearGradient id="paint42_linear_308_57" x1="64" y1="43" x2="64" y2="4" gradientUnits="userSpaceOnUse">
<stop offset="0.402189" stop-color="#A32EFF"/>
<stop offset="1" stop-color="#FF7627"/>
</linearGradient>
<linearGradient id="paint43_linear_308_57" x1="64" y1="43" x2="64" y2="4" gradientUnits="userSpaceOnUse">
<stop offset="0.402189" stop-color="#A32EFF"/>
<stop offset="1" stop-color="#FF7627"/>
</linearGradient>
<linearGradient id="paint44_linear_308_57" x1="64" y1="43" x2="64" y2="4" gradientUnits="userSpaceOnUse">
<stop offset="0.402189" stop-color="#A32EFF"/>
<stop offset="1" stop-color="#FF7627"/>
</linearGradient>
<linearGradient id="paint45_linear_308_57" x1="64" y1="43" x2="64" y2="4" gradientUnits="userSpaceOnUse">
<stop offset="0.402189" stop-color="#A32EFF"/>
<stop offset="1" stop-color="#FF7627"/>
</linearGradient>
<linearGradient id="paint46_linear_308_57" x1="64" y1="43" x2="64" y2="4" gradientUnits="userSpaceOnUse">
<stop offset="0.402189" stop-color="#A32EFF"/>
<stop offset="1" stop-color="#FF7627"/>
</linearGradient>
<linearGradient id="paint47_linear_308_57" x1="64" y1="43" x2="64" y2="4" gradientUnits="userSpaceOnUse">
<stop offset="0.402189" stop-color="#A32EFF"/>
<stop offset="1" stop-color="#FF7627"/>
</linearGradient>
<linearGradient id="paint48_linear_308_57" x1="64" y1="43" x2="64" y2="4" gradientUnits="userSpaceOnUse">
<stop offset="0.402189" stop-color="#A32EFF"/>
<stop offset="1" stop-color="#FF7627"/>
</linearGradient>
<linearGradient id="paint49_linear_308_57" x1="64" y1="43" x2="64" y2="4" gradientUnits="userSpaceOnUse">
<stop offset="0.402189" stop-color="#A32EFF"/>
<stop offset="1" stop-color="#FF7627"/>
</linearGradient>
<linearGradient id="paint50_linear_308_57" x1="64" y1="43" x2="64" y2="4" gradientUnits="userSpaceOnUse">
<stop offset="0.402189" stop-color="#A32EFF"/>
<stop offset="1" stop-color="#FF7627"/>
</linearGradient>
<linearGradient id="paint51_linear_308_57" x1="64" y1="43" x2="64" y2="4" gradientUnits="userSpaceOnUse">
<stop offset="0.402189" stop-color="#A32EFF"/>
<stop offset="1" stop-color="#FF7627"/>
</linearGradient>
<linearGradient id="paint52_linear_308_57" x1="64" y1="43" x2="64" y2="4" gradientUnits="userSpaceOnUse">
<stop offset="0.402189" stop-color="#A32EFF"/>
<stop offset="1" stop-color="#FF7627"/>
</linearGradient>
<linearGradient id="paint53_linear_308_57" x1="64" y1="43" x2="64" y2="4" gradientUnits="userSpaceOnUse">
<stop offset="0.402189" stop-color="#A32EFF"/>
<stop offset="1" stop-color="#FF7627"/>
</linearGradient>
</defs>
</svg>
